<?xml version="1.0" encoding="UTF-8"?>
<svg width="80px" height="80px" viewBox="0 0 80 80" version="1.1" xmlns="http://www.w3.org/2000/svg" xmlns:xlink="http://www.w3.org/1999/xlink">
    <title>Webvriend Beeldmerk</title>
    <desc>Powered by Webvriend</desc>
    <defs>
        <polygon id="path-1" points="0.0188976378 0.219660606 72.4856693 0.219660606 72.4856693 24.7971488 0.0188976378 24.7971488"></polygon>
    </defs>
    <g id="Artboard" stroke="none" stroke-width="1" fill="none" fill-rule="evenodd">
        <g id="Group" transform="translate(0.000000, 14.000000)">
            <g id="Group-30" transform="translate(0.000000, 13.428291)">
                <mask id="mask-2" fill="white">
                    <use xlink:href="#path-1"></use>
                </mask>
                <g id="Clip-28"></g>
                <polyline id="Fill-27" fill="#BC742F" mask="url(#mask-2)" points="64.8614173 0.219660606 72.4856693 11.4995636 65.1335433 18.0931636 58.5801575 16.6220364"></polyline>
                <path d="M2.23275591,14.9870303 L0,24.1415515 C0,24.1415515 13.5058268,26.9205576 24.9968504,21.0354182 C24.9968504,21.0354182 21.783937,14.9321939 21.1848819,12.4257939 C21.1848819,12.4257939 14.5949606,15.8042182 2.23275591,14.9870303" id="Fill-29" fill="#EB8A32" mask="url(#mask-2)"></path>
            </g>
            <polyline id="Fill-26" fill="#BC742F" points="50.5637795 44.7382788 42.2425197 47.3537212 42.2604724 6.67270303 50.5458268 9.28814545 50.5637795 44.7382788"></polyline>
            <path d="M42.5581102,51.8767758 L50.5637795,44.7382788 C50.5637795,44.7382788 31.4485039,29.3169697 31.4485039,3.43294545 L20.6651969,1.84741111e-13 C20.6651969,1.84741111e-13 19.0314961,29.7528242 42.5581102,51.8767758" id="Fill-31" fill="#EB8A32"></path>
            <path d="M42.2604724,6.67270303 L53.4248819,10.1056485 C53.4248819,10.1056485 53.2885039,19.6692364 65.1335433,31.5211394 L57.5092913,38.4418667 C57.5092913,38.4418667 42.2604724,25.2001455 42.2604724,6.67270303" id="Fill-32" fill="#EB8A32"></path>
            <path d="M64.8614173,13.6476364 L79.8374803,18.2252121 L72.4856693,24.9275394 C72.4856693,24.9275394 67.8018898,22.0940121 64.8614173,13.6476364" id="Fill-33" fill="#EB8A32"></path>
        </g>
    </g>
</svg>